<?xml version="1.0" encoding="utf-8"?>
<!-- Generator: Adobe Illustrator 27.0.0, SVG Export Plug-In . SVG Version: 6.00 Build 0)  -->
<svg version="1.1" id="Layer_1" xmlns="http://www.w3.org/2000/svg" xmlns:xlink="http://www.w3.org/1999/xlink" x="0px" y="0px"
	 viewBox="0 0 265.29 202.1" style="enable-background:new 0 0 265.29 202.1;" xml:space="preserve">
<style type="text/css">
	.st0{fill:#F28D52;}
	.st1{fill:#313131;}
</style>
<g>
	<path class="st0" d="M117.46,82.47h22.84c5.16,0,9.72,0.94,13.67,2.81c3.95,1.88,7.02,4.56,9.2,8.04
		c2.19,3.49,3.28,7.59,3.28,12.32c0,4.72-1.09,8.83-3.28,12.31c-2.19,3.49-5.25,6.17-9.2,8.04c-3.95,1.88-8.51,2.81-13.67,2.81
		h-22.84V82.47z M139.64,116.63c3.35,0,6.04-0.96,8.04-2.88c2.01-1.92,3.01-4.62,3.01-8.11c0-3.49-1-6.19-3.01-8.11
		c-2.01-1.92-4.69-2.88-8.04-2.88h-10.14v21.98H139.64z"/>
	<path class="st0" d="M196.04,112v16.82h-15.63V111.8l-17.48-29.33h16.49l9.47,16.02l9.53-16.02h15.09L196.04,112z"/>
	<path class="st1" d="M55.28,94.58H41.71V82.47h42.77v12.12H70.91v34.23H55.28V94.58z"/>
	<path class="st1" d="M93.42,124.11c-3.97-3.84-5.96-9.22-5.96-16.16V82.47h15.63v25.03c0,3.4,0.61,5.87,1.82,7.42
		c1.21,1.55,2.97,2.32,5.26,2.32s4.05-0.77,5.26-2.32c1.21-1.55,1.82-4.02,1.82-7.42V82.47h15.36v25.49
		c0,6.93-1.99,12.31-5.96,16.16c-3.97,3.84-9.51,5.76-16.62,5.76C102.93,129.87,97.39,127.95,93.42,124.11z"/>
	<rect x="6.24" y="149.28" class="st1" width="6.82" height="14.3"/>
	<rect x="250.43" y="149.28" class="st1" width="6.82" height="14.3"/>
	<g>
		<polygon class="st1" points="131.75,197.62 257.26,165.47 257.26,157.83 131.75,189.98 6.24,157.83 6.24,165.47 		"/>
		
			<rect x="128.34" y="142.9" transform="matrix(-1 -1.224647e-16 1.224647e-16 -1 263.4993 337.8227)" class="st1" width="6.82" height="52.02"/>
	</g>
	<g>
		
			<rect x="250.43" y="39.99" transform="matrix(-1 -1.224647e-16 1.224647e-16 -1 507.6902 94.2912)" class="st1" width="6.82" height="14.3"/>
		
			<rect x="6.24" y="39.99" transform="matrix(-1 -1.224647e-16 1.224647e-16 -1 19.3084 94.2912)" class="st1" width="6.82" height="14.3"/>
		<g>
			<polygon class="st1" points="131.75,5.95 6.24,38.1 6.24,45.74 131.75,13.6 257.26,45.74 257.26,38.1 			"/>
			<rect x="128.34" y="8.65" class="st1" width="6.82" height="52.02"/>
		</g>
	</g>
	<path class="st1" d="M38.57,106.3c-1.79-1.94-3.9-3.34-6.32-4.2c-2.43-0.86-5.41-1.62-8.94-2.28c-2.74-0.53-4.7-1.03-5.89-1.49
		c-1.19-0.46-1.79-1.16-1.79-2.09c0-1.94,2.01-2.91,6.03-2.91c4.06,0,8.36,1.15,12.91,3.44l4.7-11.32
		c-2.34-1.32-5.04-2.33-8.11-3.01c-3.07-0.68-6.19-1.03-9.37-1.03c-4.63,0-8.57,0.68-11.82,2.05c-1.47,0.62-2.75,1.36-3.88,2.18
		v22.11c0.94,0.6,1.93,1.11,2.99,1.5c2.38,0.86,5.36,1.67,8.94,2.42c2.78,0.57,4.78,1.1,5.99,1.59c1.21,0.49,1.82,1.21,1.82,2.19
		c0,0.84-0.46,1.47-1.39,1.89c-0.93,0.42-2.47,0.63-4.63,0.63c-2.52,0-5.14-0.39-7.88-1.16c-2.1-0.59-4.05-1.34-5.84-2.23v13.38
		c0.76,0.23,1.54,0.44,2.36,0.63c3.64,0.86,7.38,1.29,11.22,1.29c4.63,0,8.57-0.7,11.82-2.09c3.24-1.39,5.68-3.27,7.32-5.63
		c1.63-2.36,2.45-5,2.45-7.91C41.25,110.89,40.35,108.25,38.57,106.3z"/>
	<path class="st0" d="M256.89,90.33c-1.98-2.36-4.39-4.3-7.28-5.81c-3.97-2.07-8.45-3.11-13.44-3.11c-4.99,0-9.47,1.04-13.44,3.11
		c-3.97,2.08-7.08,4.96-9.34,8.64c-2.25,3.69-3.38,7.85-3.38,12.48c0,4.63,1.12,8.8,3.38,12.48c2.25,3.69,5.36,6.57,9.34,8.64
		c3.97,2.07,8.45,3.11,13.44,3.11c4.99,0,9.47-1.04,13.44-3.11c2.89-1.51,5.3-3.45,7.28-5.81V90.33z M245.17,111.77
		c-0.93,1.74-2.17,3.09-3.74,4.04c-1.57,0.95-3.32,1.42-5.26,1.42c-1.94,0-3.7-0.47-5.26-1.42c-1.57-0.95-2.81-2.29-3.74-4.04
		c-0.93-1.74-1.39-3.78-1.39-6.12c0-2.34,0.46-4.38,1.39-6.12c0.93-1.74,2.17-3.09,3.74-4.04c1.57-0.95,3.32-1.42,5.26-1.42
		c1.94,0,3.7,0.48,5.26,1.42c1.57,0.95,2.81,2.3,3.74,4.04c0.93,1.74,1.39,3.78,1.39,6.12C246.56,107.98,246.1,110.02,245.17,111.77
		z"/>
	<rect x="94.75" y="66.6" class="st1" width="9.93" height="9.93"/>
	<rect x="115.65" y="66.6" class="st1" width="9.93" height="9.93"/>
	<polygon class="st1" points="149.37,30.26 167.84,35.01 167.84,59.58 149.37,57.67 	"/>
</g>
</svg>
