<?xml version="1.0" encoding="utf-8"?>
<!-- Generator: Adobe Illustrator 25.4.8, SVG Export Plug-In . SVG Version: 6.00 Build 0)  -->
<svg version="1.1" id="Layer_1" xmlns="http://www.w3.org/2000/svg" xmlns:xlink="http://www.w3.org/1999/xlink" x="0px" y="0px"
	 viewBox="0 0 265.3 202.1" style="enable-background:new 0 0 265.3 202.1;" xml:space="preserve">
<style type="text/css">
	.st0{fill:#D19241;}
	.st1{fill:#313131;}
</style>
<g>
	<path class="st0" d="M117.5,82.5h22.8c5.2,0,9.7,0.9,13.7,2.8c3.9,1.9,7,4.6,9.2,8c2.2,3.5,3.3,7.6,3.3,12.3
		c0,4.7-1.1,8.8-3.3,12.3c-2.2,3.5-5.2,6.2-9.2,8c-3.9,1.9-8.5,2.8-13.7,2.8h-22.8C117.5,128.8,117.5,82.5,117.5,82.5z M139.6,116.6
		c3.4,0,6-1,8-2.9c2-1.9,3-4.6,3-8.1s-1-6.2-3-8.1s-4.7-2.9-8-2.9h-10.1v22C129.5,116.6,139.6,116.6,139.6,116.6z"/>
	<path class="st0" d="M196,112v16.8h-15.6v-17l-17.5-29.3h16.5l9.5,16l9.5-16h15.1L196,112z"/>
	<path class="st1" d="M55.3,94.6H41.7V82.5h42.8v12.1H70.9v34.2H55.3V94.6z"/>
	<path class="st1" d="M93.4,124.1c-4-3.8-6-9.2-6-16.2V82.5h15.6v25c0,3.4,0.6,5.9,1.8,7.4c1.2,1.6,3,2.3,5.3,2.3s4.1-0.8,5.3-2.3
		s1.8-4,1.8-7.4v-25h15.4V108c0,6.9-2,12.3-6,16.2c-4,3.8-9.5,5.8-16.6,5.8C102.9,129.9,97.4,127.9,93.4,124.1z"/>
	<rect x="6.2" y="149.3" class="st1" width="6.8" height="14.3"/>
	<rect x="250.4" y="149.3" class="st1" width="6.8" height="14.3"/>
	<g>
		<polygon class="st1" points="131.8,197.6 257.3,165.5 257.3,157.8 131.8,190 6.2,157.8 6.2,165.5 		"/>
		<rect x="128.3" y="142.9" class="st1" width="6.8" height="52"/>
	</g>
	<g>
		<rect x="250.4" y="40" class="st1" width="6.8" height="14.3"/>
		<rect x="6.2" y="40" class="st1" width="6.8" height="14.3"/>
		<g>
			<polygon class="st1" points="131.8,5.9 6.2,38.1 6.2,45.7 131.8,13.6 257.3,45.7 257.3,38.1 			"/>
			<rect x="128.3" y="8.6" class="st1" width="6.8" height="52"/>
		</g>
	</g>
	<path class="st1" d="M38.6,106.3c-1.8-1.9-3.9-3.3-6.3-4.2c-2.4-0.9-5.4-1.6-8.9-2.3c-2.7-0.5-4.7-1-5.9-1.5
		c-1.2-0.5-1.8-1.2-1.8-2.1c0-1.9,2-2.9,6-2.9c4.1,0,8.4,1.2,12.9,3.4l4.7-11.3c-2.3-1.3-5-2.3-8.1-3s-6.2-1-9.4-1
		c-4.6,0-8.6,0.7-11.8,2.1c-1.5,0.6-2.8,1.4-3.9,2.2v22.1c0.9,0.6,1.9,1.1,3,1.5c2.4,0.9,5.4,1.7,8.9,2.4c2.8,0.6,4.8,1.1,6,1.6
		c1.2,0.5,1.8,1.2,1.8,2.2c0,0.8-0.5,1.5-1.4,1.9S22,118,19.8,118c-2.5,0-5.1-0.4-7.9-1.2c-2.1-0.6-4.1-1.3-5.8-2.2V128
		c0.8,0.2,1.5,0.4,2.4,0.6c3.6,0.9,7.4,1.3,11.2,1.3c4.6,0,8.6-0.7,11.8-2.1c3.2-1.4,5.7-3.3,7.3-5.6c1.6-2.4,2.5-5,2.5-7.9
		C41.2,110.9,40.3,108.2,38.6,106.3z"/>
	<path class="st0" d="M256.9,90.3c-2-2.4-4.4-4.3-7.3-5.8c-4-2.1-8.4-3.1-13.4-3.1s-9.5,1-13.4,3.1c-4,2.1-7.1,5-9.3,8.6
		c-2.2,3.7-3.4,7.8-3.4,12.5s1.1,8.8,3.4,12.5c2.2,3.7,5.4,6.6,9.3,8.6c4,2.1,8.4,3.1,13.4,3.1s9.5-1,13.4-3.1
		c2.9-1.5,5.3-3.4,7.3-5.8V90.3z M245.2,111.8c-0.9,1.7-2.2,3.1-3.7,4c-1.6,0.9-3.3,1.4-5.3,1.4c-1.9,0-3.7-0.5-5.3-1.4
		c-1.6-0.9-2.8-2.3-3.7-4c-0.9-1.7-1.4-3.8-1.4-6.1c0-2.3,0.5-4.4,1.4-6.1c0.9-1.7,2.2-3.1,3.7-4c1.6-0.9,3.3-1.4,5.3-1.4
		c1.9,0,3.7,0.5,5.3,1.4c1.6,0.9,2.8,2.3,3.7,4c0.9,1.7,1.4,3.8,1.4,6.1C246.6,108,246.1,110,245.2,111.8z"/>
	<rect x="94.8" y="66.6" class="st1" width="9.9" height="9.9"/>
	<rect x="115.7" y="66.6" class="st1" width="9.9" height="9.9"/>
	<polygon class="st1" points="149.4,30.3 167.8,35 167.8,59.6 149.4,57.7 	"/>
</g>
</svg>
